# xmcd CD database file
#
# Track frame offsets:
#	150
#	24832
#	47390
#	78890
#	112584
#	131412
#	161924
#	191712
#
# Disc length: 2832 seconds
#
# Revision: 0
# Processed by: cddbd v1.5.2PL0 Copyright (c) Steve Scherf et al.
# Submitted via: CDex 1.51
#
DISCID=520b0e08
DTITLE=JON LORD With The Hoochie Coochie Men - Live At The Basehent
DYEAR=2008
DGENRE=Blues
TTITLE0=Jon Lord Interview(By Phillipp Kafcaloudes)
TTITLE1=Jon Lord Interview(By Derek Guile)
TTITLE2=Green Onions(Helbourne Rehearsal)
TTITLE3=Chicken Chack(First Hoochie Coochie Men Gig Melbourne)
TTITLE4=24  - 7(Live At Fat TV)
TTITLE5=Who's Been Talkin'(Live At Fat TV)
TTITLE6=If This Aim't The Blues(Demo)
TTITLE7=The Hoochie Coochie Men(Demo)
EXTD=YEAR: 2008
EXTT0=
EXTT1=
EXTT2=
EXTT3=
EXTT4=
EXTT5=
EXTT6=
EXTT7=
PLAYORDER=
